<?xml version="1.0" standalone="no"?>
<!DOCTYPE svg PUBLIC "-//W3C//DTD SVG 20010904//EN"
 "http://www.w3.org/TR/2001/REC-SVG-20010904/DTD/svg10.dtd">
<svg version="1.0" xmlns="http://www.w3.org/2000/svg"
 width="512.000000pt" height="228.000000pt" viewBox="0 0 512.000000 228.000000"
 preserveAspectRatio="xMidYMid meet">
<metadata>
Created by potrace 1.16, written by Peter Selinger 2001-2019
</metadata>
<g transform="translate(0.000000,228.000000) scale(0.100000,-0.100000)"
fill="#000000" stroke="none">
<path d="M40 1780 c0 -404 2 -459 15 -454 18 7 20 -17 3 -34 -22 -22 5 -13 29
10 l23 21 262 -17 c145 -10 299 -16 343 -13 l80 4 3 46 c2 28 8 47 15 47 7 0
73 -9 147 -20 96 -14 183 -20 300 -19 91 0 190 -5 220 -11 259 -52 316 -58
359 -36 42 22 89 81 97 121 4 24 12 35 24 35 25 0 34 29 12 37 -9 4 -36 19
-59 35 -23 15 -47 28 -53 28 -6 0 -13 7 -16 15 -4 8 -12 15 -19 15 -13 0 -85
38 -85 45 0 2 140 3 310 2 171 -1 310 1 310 6 0 8 -15 8 -402 8 -154 0 -260 4
-264 10 -3 6 49 10 138 10 79 0 152 0 162 0 18 0 17 1 -3 15 -11 8 -21 19 -21
23 0 12 193 11 208 -1 8 -7 12 -7 12 1 0 15 43 14 58 -1 7 -7 12 -8 12 -2 0
14 353 5 362 -10 6 -8 8 -7 8 2 0 13 28 16 54 6 8 -3 13 -11 10 -17 -6 -16
-276 -10 -286 7 -6 8 -8 8 -8 -1 0 -8 -13 -13 -30 -13 -17 0 -30 5 -30 13 0 9
-2 9 -8 0 -8 -13 -190 -16 -207 -3 -5 4 -16 2 -23 -6 -14 -15 -14 -15 318 -15
173 0 301 -9 294 -20 -2 -5 -72 -7 -154 -6 -83 1 -150 -1 -150 -5 0 -7 84 -10
255 -10 43 0 46 -1 25 -9 -14 -6 -94 -9 -177 -7 -84 2 -153 0 -153 -4 0 -7
223 -14 272 -9 10 1 28 -5 40 -15 15 -11 17 -14 6 -11 -24 8 -207 11 -215 3
-4 -3 39 -6 95 -6 61 0 102 -4 102 -10 0 -5 -10 -10 -22 -11 -22 0 -22 -1 -3
-9 17 -7 16 -9 -10 -10 l-30 -2 33 -8 c39 -9 47 -16 33 -25 -6 -3 -11 -1 -11
4 0 6 -18 10 -42 10 l-43 -2 40 -6 c24 -4 35 -9 28 -14 -7 -4 -10 -14 -6 -22
3 -8 0 -15 -7 -15 -6 0 -8 -4 -5 -10 3 -5 1 -10 -5 -10 -7 0 -10 12 -8 27 3
27 2 27 -44 24 -42 -2 -47 0 -51 21 l-4 23 -2 -22 c-1 -17 -7 -23 -25 -23 -24
0 -24 0 -10 -47 27 -88 8 -84 -26 7 -12 33 -26 60 -30 60 -4 0 3 -29 16 -65
13 -36 22 -65 20 -65 -2 0 -21 30 -41 66 -45 80 -57 80 -14 0 16 -32 28 -60
26 -62 -5 -6 -74 88 -89 122 -6 13 -15 24 -20 24 -10 0 -11 1 49 -92 24 -36
43 -70 43 -74 0 -6 -96 108 -125 149 -8 11 -17 18 -20 16 -2 -3 3 -14 13 -25
10 -10 39 -48 66 -84 l48 -65 -77 78 c-43 42 -80 77 -83 77 -4 0 14 -20 38
-45 70 -71 39 -64 -37 9 -57 55 -64 66 -45 66 12 0 22 -4 22 -10 0 -5 5 -10
11 -10 5 0 7 5 4 10 -4 6 8 10 27 11 18 0 26 3 18 6 -16 7 -40 29 -40 37 0 14
40 4 49 -11 5 -10 12 -16 14 -13 3 3 0 13 -7 22 -11 15 -38 17 -219 20 -114 2
-207 0 -207 -4 0 -5 5 -8 11 -8 6 0 31 -13 55 -29 24 -17 45 -27 48 -23 2 4
-14 16 -37 27 l-41 20 48 3 c29 2 54 -2 64 -10 12 -10 14 -10 8 0 -5 9 6 12
43 12 28 0 51 -4 51 -9 0 -5 7 -12 16 -15 14 -5 15 -4 4 9 -20 24 23 20 45 -5
18 -19 17 -20 -6 -20 -20 0 -12 -11 56 -80 43 -44 82 -75 85 -70 4 6 17 -2 31
-17 17 -20 18 -23 3 -10 -24 20 -38 22 -28 5 6 -10 4 -10 -7 0 -7 6 -17 12
-22 12 -4 0 -5 -6 -1 -12 5 -9 3 -9 -9 1 -9 7 -15 17 -12 21 2 4 -22 31 -55
59 -33 29 -60 50 -60 46 0 -3 16 -20 35 -37 35 -30 42 -54 8 -27 -16 13 -17
12 -4 -3 7 -10 10 -18 6 -18 -9 0 -69 42 -73 52 -2 4 -8 8 -14 8 -6 0 -6 -6 2
-15 7 -8 8 -15 3 -15 -15 0 -32 22 -27 35 3 7 -2 15 -10 18 -9 4 -16 2 -16 -2
0 -5 6 -12 12 -14 9 -4 9 -6 -2 -6 -10 -1 -7 -6 8 -17 12 -8 20 -19 17 -24 -3
-5 0 -12 6 -16 8 -5 9 -3 4 6 -5 8 -3 11 6 8 8 -3 13 -10 12 -16 -2 -7 4 -9
14 -5 11 4 14 2 9 -5 -3 -6 3 -16 14 -22 11 -6 20 -8 20 -5 0 3 10 -3 22 -15
19 -18 35 -20 147 -20 69 0 156 -3 193 -6 66 -7 68 -6 77 20 7 17 18 26 32 26
47 0 95 41 159 136 35 51 68 91 73 87 6 -3 7 -1 3 6 -9 14 19 61 36 61 6 0 21
-8 32 -17 21 -18 21 -18 2 5 -12 13 -14 22 -7 22 7 0 9 5 6 10 -5 8 -11 7 -21
-1 -12 -10 -13 -9 -8 5 4 10 12 15 19 12 7 -2 17 0 22 5 7 7 19 0 35 -20 19
-22 28 -27 37 -18 15 15 14 30 -1 21 -7 -4 -4 3 7 17 11 13 22 26 24 29 2 3 0
-6 -4 -19 -5 -18 -4 -22 6 -16 8 5 0 -7 -18 -26 -18 -19 -32 -37 -33 -41 0 -5
-2 -8 -5 -8 -3 0 -8 0 -11 0 -4 0 -1 7 6 15 7 9 8 15 2 15 -10 0 -22 -23 -22
-41 0 -5 8 -9 18 -9 16 0 17 -14 14 -179 l-3 -179 208 -7 c179 -7 236 -5 413
13 162 17 231 20 330 14 79 -4 171 -3 250 5 69 6 161 14 205 18 44 3 101 8
128 11 29 3 47 1 47 -6 0 -5 -9 -10 -19 -10 -10 0 -21 -7 -25 -15 -3 -8 -2
-15 2 -15 11 0 34 -41 28 -48 -4 -3 -21 8 -38 24 l-32 29 17 -27 c20 -32 12
-35 -23 -11 -24 16 -24 16 -11 0 12 -15 11 -17 -2 -17 -9 0 -25 12 -36 26 -12
15 -21 23 -21 19 0 -5 7 -17 17 -27 24 -27 -4 -24 -36 5 l-26 22 19 -22 c23
-28 3 -32 -28 -5 -21 17 -21 17 -2 -5 26 -31 5 -29 -32 2 -42 35 -64 31 -24
-5 32 -29 33 -30 125 -25 50 2 181 6 289 7 l197 3 3 -25 c2 -14 10 -26 21 -28
10 -2 17 0 16 5 -4 24 2 53 12 53 7 0 10 -12 7 -30 -3 -17 -1 -30 4 -30 4 0 8
14 8 30 0 17 5 30 11 30 7 0 10 -12 7 -30 -5 -30 6 -40 43 -40 21 0 26 15 7
24 -10 5 -10 7 -1 12 9 4 12 130 13 535 l0 529 -531 0 c-346 0 -537 -4 -550
-10 -13 -7 -19 -7 -19 0 0 6 -73 10 -214 10 l-213 0 -87 -95 c-77 -83 -90 -93
-106 -83 -14 9 -16 16 -9 24 7 9 6 20 -4 36 -8 13 -18 34 -22 48 -6 22 -4 20
19 -9 14 -19 26 -30 26 -25 0 6 -7 19 -15 30 -27 36 -15 48 14 14 l30 -35 -22
47 -22 47 -200 0 c-162 0 -196 -2 -179 -12 17 -9 20 -17 14 -33 -7 -16 -19
-23 -50 -26 -43 -4 -45 0 -24 56 6 15 -67 16 -830 16 -539 0 -835 -4 -831 -10
3 -5 1 -18 -5 -27 -8 -14 -10 -14 -9 -3 3 33 -2 40 -30 40 -16 0 -32 -6 -34
-12 -4 -10 -6 -10 -6 0 -1 9 -121 12 -566 12 l-565 0 0 -460z m2620 390 c0
-69 0 -69 -121 -69 -69 0 -109 3 -109 10 0 6 -4 8 -9 5 -5 -3 -11 1 -15 9 -3
8 -1 15 5 15 7 0 9 13 5 35 l-7 35 126 -1 125 0 0 -39z m-230 -101 c0 11 20
12 103 7 56 -3 105 -5 110 -6 4 0 7 -18 7 -40 l0 -40 -105 0 -105 0 -1 28 -2
27 -4 -27 c-7 -46 -23 -32 -23 20 0 34 3 43 10 32 7 -12 10 -12 10 -1z m220
-135 l0 -36 -136 6 c-75 3 -139 8 -142 10 -2 3 3 17 12 31 16 25 19 25 141 25
l125 0 0 -36z m-299 -56 c0 -10 2 -10 6 0 3 7 23 12 49 12 39 0 44 -3 45 -22
l2 -23 4 23 c4 22 5 22 126 16 67 -4 123 -7 123 -8 1 0 5 -11 8 -23 7 -21 4
-23 -28 -23 -30 0 -36 4 -37 23 l-2 22 -4 -23 c-4 -22 -7 -22 -139 -21 -118 0
-134 2 -135 17 -1 15 -2 15 -6 -1 -2 -9 -8 -15 -13 -12 -5 3 -31 6 -59 6 -38
1 -51 5 -51 16 0 8 6 13 13 10 7 -3 21 1 32 9 23 17 65 18 66 2z m19 -71 c0
-9 3 -8 8 1 7 9 39 12 133 8 68 -2 143 -5 167 -5 35 -1 42 -4 42 -21 0 -17 -7
-20 -40 -20 -25 0 -40 5 -41 13 0 10 -2 10 -6 0 -3 -9 -30 -13 -84 -13 -68 0
-79 2 -80 18 -1 15 -2 15 -6 -1 -4 -17 -12 -18 -81 -11 -43 3 -80 12 -84 18
-6 8 -8 7 -8 -1 0 -22 -68 -16 -80 7 -10 18 -6 19 75 19 59 0 85 -4 85 -12z
m-371 -59 c11 -11 12 -10 7 0 -6 10 55 12 316 11 340 -1 391 -4 385 -23 -5
-16 -299 -19 -309 -3 -4 7 -8 8 -8 2 0 -14 -211 -6 -229 8 -12 9 -13 9 -7 0 5
-10 -2 -13 -26 -13 -19 0 -40 6 -47 13 -11 10 -13 10 -7 0 11 -20 -128 -18
-144 2 -11 13 -8 15 22 15 19 0 40 -6 47 -12z m-422 -253 c-9 -7 -14 -15 -10
-19 4 -3 -9 -23 -28 -43 l-34 -36 33 23 c19 12 36 29 39 36 5 14 33 20 33 7 0
-4 -15 -23 -32 -42 -18 -19 -24 -29 -13 -21 32 24 75 70 75 80 0 6 5 10 10 10
6 0 10 -3 10 -6 0 -11 -43 -68 -70 -92 -20 -19 -21 -22 -4 -13 11 5 37 28 57
50 20 23 39 41 41 41 13 0 -30 -63 -57 -86 -18 -14 -23 -21 -12 -16 25 13 85
71 85 83 0 5 5 9 10 9 12 0 -2 -32 -29 -66 -9 -11 1 -3 22 18 21 21 40 38 42
38 3 0 -6 -19 -21 -42 l-25 -43 35 39 c44 47 48 31 5 -21 -29 -35 -29 -35 10
5 47 47 59 54 36 18 -15 -23 -15 -25 5 -31 11 -3 18 -11 15 -16 -10 -15 2 -10
16 8 10 11 10 14 2 9 -8 -4 -13 -2 -13 4 0 6 -4 8 -10 5 -5 -3 -10 -1 -10 4 0
13 10 14 30 1 9 -6 20 -5 29 3 12 10 13 9 6 -3 -4 -8 -13 -22 -19 -31 -6 -8 2
-1 18 15 17 17 27 23 23 13 -4 -10 -2 -17 6 -17 6 0 -3 -14 -20 -32 -39 -38
-81 -43 -189 -22 -38 8 -85 16 -104 19 -19 3 -49 9 -67 14 -17 5 -34 7 -37 4
-2 -3 -11 -1 -18 3 -15 9 -32 12 -107 19 -57 5 -82 17 -60 30 8 5 10 4 5 -3
-5 -8 2 -10 25 -5 19 4 30 2 26 -3 -7 -12 98 -13 109 -1 4 4 -4 7 -17 7 -23 1
-23 1 -5 15 14 11 23 12 33 4 10 -9 17 -8 30 2 30 24 51 47 68 73 10 14 22 23
28 19 6 -4 4 -11 -6 -18z"/>
<path d="M325 1003 c-33 -1 -80 -6 -105 -9 l-45 -6 24 -19 c13 -10 19 -19 14
-19 -5 0 -20 10 -33 22 -17 16 -40 23 -81 26 l-58 4 -1 -476 0 -476 766 0
c597 0 770 3 782 13 13 9 14 9 8 0 -5 -10 7 -13 53 -13 38 0 61 4 64 13 3 9 8
9 21 -2 16 -13 16 -12 6 10 -7 13 -27 34 -46 46 l-34 22 -16 -25 c-21 -32 -27
-26 -13 14 9 27 14 30 30 22 10 -6 19 -8 19 -5 0 13 59 -27 87 -59 23 -25 34
-31 42 -23 8 8 14 8 23 -1 13 -13 58 -17 58 -4 0 4 7 16 15 26 14 19 15 19 35
1 11 -10 17 -22 14 -26 -3 -5 24 -9 59 -9 62 0 78 8 76 36 0 4 4 10 11 14 6 4
13 15 14 25 7 49 42 -2 38 -55 -1 -13 38 -16 295 -18 291 -2 295 -2 290 18 -4
15 0 20 15 20 11 0 22 -8 25 -20 3 -11 9 -20 13 -20 5 0 6 9 3 20 -4 14 0 20
11 20 9 0 16 -8 16 -19 0 -18 9 -19 115 -20 l116 -1 -15 28 c-14 26 -13 30 9
58 l23 29 18 -37 c17 -36 17 -38 -1 -58 -16 -17 -16 -20 -2 -20 9 0 19 5 22
10 5 7 11 8 18 1 7 -5 56 -9 109 -9 76 1 95 4 91 14 -6 17 23 19 33 2 5 -7 3
-8 -6 -3 -9 5 -11 4 -6 -3 11 -18 67 -16 60 2 -9 23 12 27 31 6 18 -19 62 -29
51 -11 -8 12 62 64 75 56 7 -5 6 -11 -2 -21 -10 -12 -8 -13 7 -8 18 5 18 5 1
-6 -9 -6 -21 -9 -25 -6 -4 2 -16 -2 -27 -10 -17 -13 -12 -14 47 -14 44 0 68 4
71 13 4 9 8 8 16 -3 9 -13 11 -12 11 5 l1 20 15 -20 c15 -19 15 -19 12 -1 -4
25 18 32 24 8 5 -18 16 -20 124 -21 79 -1 114 2 104 8 -8 6 -12 13 -8 16 3 3
13 -1 22 -10 9 -9 21 -15 28 -13 6 2 -4 14 -23 26 -31 19 -32 22 -11 22 13 0
40 -11 60 -25 35 -24 42 -25 199 -25 135 0 163 2 163 14 0 8 5 18 12 22 7 5 9
1 6 -13 -5 -18 0 -20 43 -21 39 -1 49 3 49 15 0 15 2 14 18 0 16 -15 52 -17
300 -17 l282 0 0 414 0 413 -88 12 c-139 18 -147 16 -179 -26 -15 -21 -28 -39
-29 -41 -2 -3 -85 8 -364 49 -92 13 -188 19 -302 19 l-168 0 0 -50 c0 -27 -3
-50 -8 -50 -4 0 -40 9 -80 20 -59 17 -102 20 -252 20 -170 0 -180 -1 -180 -19
0 -14 -10 -21 -36 -25 -36 -7 -114 -74 -114 -98 0 -7 -4 -19 -9 -27 -7 -10
-34 5 -122 66 -233 164 -253 175 -307 175 -80 0 -146 -48 -172 -127 -7 -23
-18 -35 -29 -35 -17 0 -19 -15 -26 -160 -4 -88 -4 -230 0 -316 l7 -156 -48 7
c-56 9 -70 15 -31 15 15 0 27 4 27 9 0 13 -65 21 -185 21 -142 0 -157 4 -144
37 12 33 11 37 -6 23 -8 -7 -15 -9 -16 -4 0 5 -2 24 -3 42 -4 38 9 43 18 7 6
-24 26 -27 26 -4 0 6 -5 7 -10 4 -6 -3 -10 4 -9 17 0 13 3 17 6 10 5 -14 23
-16 23 -3 0 5 -9 13 -20 16 -11 3 -20 14 -20 23 0 14 2 14 9 3 7 -11 11 -8 17
10 4 13 7 33 6 44 -2 17 0 16 8 -3 6 -13 7 -36 4 -50 -15 -60 6 -9 52 128 57
174 61 221 20 275 -33 43 -81 75 -113 75 -17 0 -23 6 -23 24 l0 23 -188 7
-188 8 -104 -40 -105 -40 -8 51 c-4 29 -6 62 -4 74 3 15 -2 24 -12 27 -9 2
-95 7 -191 11 -144 5 -199 2 -310 -14 -90 -12 -164 -17 -220 -14 -52 3 -129
-1 -199 -11 -63 -9 -115 -15 -116 -14 -1 2 -7 18 -15 36 -7 18 -24 42 -38 52
-25 20 -33 21 -187 13z"/>
</g>
</svg>
