<?xml version="1.0" standalone="no"?>
<!DOCTYPE svg PUBLIC "-//W3C//DTD SVG 20010904//EN"
 "http://www.w3.org/TR/2001/REC-SVG-20010904/DTD/svg10.dtd">
<svg version="1.0" xmlns="http://www.w3.org/2000/svg"
 width="550.000000pt" height="363.000000pt" viewBox="0 0 550.000000 363.000000"
 preserveAspectRatio="xMidYMid meet">
<metadata>
Created by potrace 1.16, written by Peter Selinger 2001-2019
</metadata>
<g transform="translate(0.000000,363.000000) scale(0.100000,-0.100000)"
fill="#000000" stroke="none">
<path d="M3006 3293 c-3 -3 -6 -20 -6 -37 -1 -30 -29 -76 -47 -76 -10 0 -35
37 -45 65 -4 14 -6 10 -7 -16 -1 -30 -10 -45 -55 -88 -54 -50 -66 -55 -116
-51 -19 2 -22 -1 -13 -12 10 -13 13 -31 13 -75 0 -12 5 -25 10 -28 12 -7 -14
-73 -35 -89 -13 -9 -11 -13 9 -22 22 -10 29 -6 79 40 30 28 89 69 131 91 43
22 91 51 107 65 l31 25 -16 62 c-9 33 -16 79 -16 101 0 39 -10 59 -24 45z"/>
<path d="M4385 3246 c-19 -14 -19 -15 10 -14 40 1 87 -24 111 -59 17 -25 19
-46 18 -193 -1 -139 -5 -177 -24 -240 -12 -41 -24 -88 -27 -105 -4 -27 -19
-63 -75 -182 -12 -25 -27 -43 -37 -43 -9 0 -61 22 -116 49 -55 27 -113 52
-129 55 l-28 7 4 -128 c4 -132 14 -169 54 -204 18 -15 142 -43 314 -69 41 -7
120 -23 175 -35 55 -13 134 -26 175 -30 98 -8 180 -30 250 -65 67 -34 126 -51
285 -85 66 -14 128 -28 137 -31 17 -5 18 25 18 578 l0 583 -82 30 c-73 26
-101 30 -228 35 -138 6 -148 8 -205 37 -38 20 -93 38 -150 48 -49 9 -148 27
-220 42 -176 35 -206 37 -230 19z"/>
<path d="M4344 2895 c-53 -52 -149 -195 -160 -239 -4 -18 -13 -26 -28 -26 -20
-1 -20 -1 -2 -15 11 -8 15 -19 10 -27 -7 -12 11 1 59 44 11 9 16 21 12 27 -3
7 -1 10 6 9 17 -4 103 125 135 204 15 37 25 69 23 71 -2 1 -27 -20 -55 -48z"/>
<path d="M3158 2815 c-50 -13 -107 -45 -128 -70 -11 -14 -10 -14 15 -5 15 6
30 9 32 6 2 -2 21 4 41 14 27 13 42 15 56 8 10 -5 33 -8 51 -6 24 3 31 0 28
-9 -3 -7 -9 -13 -14 -13 -18 0 -8 -17 16 -28 40 -19 71 -14 114 16 22 15 40
29 41 32 0 3 -35 13 -78 23 -42 10 -86 25 -96 33 -11 8 -22 14 -25 13 -3 0
-27 -7 -53 -14z"/>
<path d="M2630 2723 c-17 -22 -21 -37 -17 -71 5 -48 25 -74 68 -92 l29 -12 0
-298 0 -298 28 -3 c51 -7 165 6 170 19 2 6 -3 12 -12 12 -20 0 -23 70 -3 70 6
0 4 5 -5 11 -22 12 -23 29 -3 29 8 0 15 7 15 15 0 12 -13 15 -59 15 l-58 0 -6
68 c-4 37 -7 133 -7 213 l0 147 30 12 c35 14 73 57 64 72 -4 5 -13 3 -22 -5
-21 -18 -77 -37 -109 -37 -34 0 -93 60 -93 95 0 14 5 35 10 46 15 28 5 23 -20
-8z"/>
<path d="M3388 1998 c-47 -58 -108 -148 -108 -160 0 -5 4 -17 10 -27 7 -15 -1
-34 -42 -92 -72 -105 -97 -130 -123 -123 -28 7 -53 -22 -58 -69 -4 -38 -12
-51 -60 -103 -24 -27 -27 -35 -18 -53 12 -21 17 -21 321 -21 l309 0 45 44 c24
24 57 51 73 60 29 14 32 14 98 -25 l67 -39 414 0 c228 0 414 3 414 8 0 4 -7
18 -16 30 -29 42 -6 52 117 52 60 0 109 4 109 9 0 20 -40 244 -46 252 -3 5
-106 9 -230 9 -222 0 -225 0 -247 23 -12 13 -69 78 -127 145 l-105 122 -381 0
-382 0 -34 -42z m833 -192 c66 -45 81 -69 56 -89 -21 -17 -28 -111 -10 -137
30 -43 13 -50 -117 -50 -112 0 -120 1 -120 19 0 11 5 23 11 27 8 5 9 27 4 73
-14 126 -16 121 44 163 30 21 58 38 62 38 4 0 35 -20 70 -44z m-349 -11 c56
-44 65 -66 32 -79 -21 -8 -19 -114 2 -137 9 -10 14 -25 11 -34 -9 -22 -235
-22 -243 0 -4 8 -1 22 6 30 10 12 10 32 1 90 -6 42 -11 82 -11 90 0 21 90 84
120 85 15 0 49 -18 82 -45z"/>
<path d="M1472 1548 c-8 -8 -12 -50 -12 -127 0 -84 -4 -124 -15 -145 -9 -16
-12 -33 -7 -38 5 -5 91 -3 196 4 175 11 187 13 192 32 2 12 3 80 2 151 l-3
130 -170 3 c-124 2 -174 -1 -183 -10z"/>
<path d="M1967 1333 c-4 -3 -7 -35 -7 -71 l0 -64 63 7 c67 8 72 10 81 40 8 28
-1 37 -67 68 -65 30 -61 29 -70 20z"/>
<path d="M3698 1284 l-28 -15 -1 -169 c0 -94 -1 -191 -1 -217 l-1 -48 168 2
c103 1 172 6 178 12 8 8 -8 11 -53 11 -94 1 -101 9 -108 119 -2 50 0 124 7
163 6 40 14 89 16 109 l5 36 -47 7 c-69 9 -105 7 -135 -10z"/>
<path d="M4358 1252 c-18 -3 -34 -54 -23 -72 10 -15 50 -12 84 7 30 18 31 17
77 -7 25 -14 52 -37 60 -51 7 -15 29 -36 49 -47 28 -17 35 -28 35 -51 0 -16
-4 -33 -10 -36 -11 -7 -14 -59 -2 -53 64 33 127 58 136 54 6 -3 18 -10 26 -15
8 -5 22 -12 32 -15 10 -3 19 -20 23 -45 4 -23 11 -41 16 -41 4 0 24 14 44 31
37 33 44 61 20 85 -8 9 -15 27 -15 40 0 14 -5 24 -12 23 -7 -1 -30 -1 -50 0
-29 1 -38 5 -39 19 0 13 -2 14 -6 2 -8 -20 -33 -44 -39 -37 -3 3 -8 48 -11
101 -3 53 -11 100 -17 104 -11 6 -345 10 -378 4z"/>
<path d="M3199 1188 c-7 -73 -2 -158 8 -158 7 0 38 12 70 26 33 15 78 27 106
28 l48 1 -3 55 -3 55 -112 3 c-86 2 -113 0 -114 -10z"/>
<path d="M437 1073 c-3 -4 -6 -64 -8 -133 l-4 -125 134 -5 c73 -3 137 -3 142
0 5 3 5 64 1 135 l-7 130 -127 3 c-69 1 -129 -1 -131 -5z"/>
<path d="M820 1078 c0 -2 -1 -63 -3 -136 -1 -72 2 -133 7 -135 4 -1 29 0 54 3
l46 5 -3 125 c-1 68 -4 127 -6 131 -4 5 -95 12 -95 7z"/>
<path d="M1735 1072 c-36 -7 -45 -32 -45 -124 0 -102 7 -107 75 -60 38 27 40
31 40 83 1 30 -1 61 -3 70 -5 20 -40 37 -67 31z"/>
<path d="M1489 1054 c-8 -10 -13 -48 -13 -107 l-1 -92 59 -3 59 -3 -6 102 c-3
69 -10 104 -19 110 -21 14 -65 10 -79 -7z"/>
<path d="M4350 1059 c-30 -4 -58 -5 -63 -2 -5 3 -17 -3 -28 -13 -23 -21 -25
-76 -4 -94 16 -13 50 -6 41 8 -3 5 2 19 11 31 13 20 21 22 56 17 49 -8 59 -14
50 -29 -5 -7 -8 -19 -9 -27 -1 -8 -2 -27 -3 -42 -1 -20 -5 -25 -19 -21 -10 2
-24 -3 -31 -11 -10 -12 -32 -16 -83 -16 -90 0 -105 9 -114 65 -5 40 -24 74
-24 46 0 -6 -7 -11 -15 -11 -19 0 -20 -19 -1 -26 23 -9 28 -35 11 -60 -9 -13
-14 -24 -13 -25 2 0 84 -1 183 -3 100 -1 186 -6 193 -10 8 -5 10 -20 6 -45 -4
-24 -2 -41 5 -45 13 -9 81 12 81 24 0 15 37 17 70 4 37 -16 84 -19 75 -4 -3 5
8 13 25 17 40 10 40 25 1 36 -24 6 -31 13 -31 32 0 23 -3 24 -54 22 -30 -1
-58 -5 -62 -9 -3 -4 -16 -2 -27 4 -12 6 -45 8 -79 5 -40 -3 -58 -2 -59 6 -3
28 4 53 18 69 16 18 10 38 -13 38 -20 0 -18 10 8 37 12 13 20 25 17 27 -11 9
-70 12 -119 5z"/>
<path d="M1165 1040 c-3 -5 -6 -73 -6 -151 0 -146 5 -164 41 -155 8 2 27 7 43
10 l27 6 0 144 c0 158 1 156 -65 156 -19 0 -37 -4 -40 -10z"/>
<path d="M2398 493 c-16 -10 -28 -20 -28 -23 0 -3 63 -5 140 -4 77 0 140 -2
140 -6 0 -3 28 -2 63 3 96 14 101 15 122 32 19 15 17 16 -35 9 -64 -9 -125 -9
-270 0 -91 6 -109 4 -132 -11z"/>
</g>
</svg>
